Coordinates
version=1
nRows=17
nColumns=33
inDegrees=yes

Units are S.I. units (second, meters, Newtons, ...)
Angles are in degrees.

endheader
time	ground_thorax_rot_x	ground_thorax_rot_y	ground_thorax_rot_z	ground_thorax_tx	ground_thorax_ty	ground_thorax_tz	clav_prot_r	clav_elev_r	scapula_abduction_r	scapula_elevation_r	scapula_upward_rot_r	scapula_winging_r	shoulder_elv_r	plane_of_elev_r	axial_rot_r	elbow_flexion_r	pro_sup_r	wrist_flex_r	wrist_dev_r	clav_prot_l	clav_elev_l	scapula_abduction_l	scapula_elevation_l	scapula_upward_rot_l	scapula_winging_l	shoulder_elv_l	plane_of_elev_l	axial_rot_l	elbow_flexion_l	pro_sup_l	wrist_flex_l	wrist_dev_l
      5.65000000	     -3.05604906	      2.28586365	     10.90269274	     -0.09840226	      1.02900943	      0.00834493	     11.03496480	     -8.57241924	     25.14482362	     -5.88878882	     11.08033999	     -7.63425220	    -17.72999647	    -67.82907044	    120.63848975	    -74.31290852	   -156.71169594	     12.69434208	      3.82624797	     15.87869579	     -4.66086425	    -22.54274457	    -15.37547310	    -31.77305526	      4.18350916	     65.05445400	    -17.73031351	      3.01926102	     58.97004662	      9.45429594	     22.29688219	     -7.64130159
      5.66000000	     -3.37014269	      2.37056378	     11.00485114	     -0.09826199	      1.02906739	      0.00785956	     11.29298734	     -9.21813353	     25.95233077	     -6.65412101	     11.67045387	     -7.67037233	    -16.79340294	    -66.92245324	    120.63971286	    -72.55176328	   -156.68255461	     12.12640672	      4.10189451	     16.21592619	     -5.17977154	    -23.07979723	    -14.60470165	    -31.20143036	      4.52687904	     65.35539203	    -16.89186547	      2.53602730	     56.87571777	      9.62767172	     22.43913626	     -7.23316749
      5.67000000	     -3.65537852	      2.44231950	     10.88575306	     -0.09819755	      1.02831326	      0.00744512	     11.45217202	     -9.27226625	     26.64559848	     -6.94100495	     12.37298853	     -7.92144870	    -14.67112623	    -65.66914947	    122.20808364	    -70.88606101	   -156.64857498	     10.59075766	      6.13672705	     16.80851241	     -5.23827160	    -24.04550507	    -14.12000510	    -30.37833132	      5.14229807	     64.82590487	    -15.43423608	      2.95945893	     54.36080782	      9.07443549	     23.47422652	     -6.57678059
      5.68000000	     -3.97277660	      2.51925817	     10.77655184	     -0.09806983	      1.02843682	      0.00699642	     11.74967608	     -9.92270995	     27.50644769	     -7.70150070	     12.95475836	     -7.95197349	    -13.49029572	    -64.61986743	    122.34240371	    -68.95711716	   -156.53174311	      9.93929803	      6.53204683	     17.19759091	     -5.82116892	    -24.67562592	    -13.25864417	    -29.74274795	      5.52250707	     65.07793260	    -14.52757187	      2.78110668	     51.95072011	      9.23258030	     23.67045629	     -6.12080462
      5.69000000	     -4.14447937	      2.52339558	     10.84075614	     -0.09793581	      1.02791758	      0.00638934	     11.92674210	    -10.05490250	     28.21649667	     -8.03935627	     13.62801611	     -8.16193459	    -11.59525988	    -63.54720517	    123.64842443	    -66.80370967	   -156.16650669	      8.81495723	      7.92210637	     17.75853991	     -6.01144125	    -25.61129789	    -12.76361860	    -29.14277026	      6.08145411	     64.39546532	    -13.08432471	      3.45110818	     49.20176914	      9.03804700	     24.45777207	     -5.72973571
      5.70000000	     -4.38333231	      2.61917844	     10.87005107	     -0.09796661	      1.02761552	      0.00597494	     12.22819021	    -10.39060173	     28.91480752	     -8.43119945	     13.94829674	     -8.27978213	     -9.75949551	    -62.30895232	    124.54024697	    -64.63933457	   -155.63233203	      7.94025210	      8.68894282	     18.37419415	     -6.47688109	    -26.64245033	    -12.08180258	    -28.67429191	      6.65274651	     64.18741967	    -11.89665078	      3.82930170	     46.50399477	      9.25226544	     24.95901331	     -5.50377057
      5.71000000	     -4.69761006	      2.71063766	     10.70959319	     -0.09766915	      1.02768759	      0.00561158	     12.51481090	    -11.00543118	     29.77116838	     -9.16411057	     14.57092436	     -8.29547971	     -8.73580630	    -61.31907294	    124.56383910	    -62.41092187	   -155.38528405	      7.37831442	      8.82997921	     18.75953641	     -7.07157603	    -27.26641823	    -11.24096042	    -28.07650582	      7.00040266	     64.38947544	    -10.96251980	      3.70498728	     43.90931847	      9.62859768	     25.02672750	     -5.14207053
      5.72000000	     -4.87487637	      2.76000070	     10.70427635	     -0.09737574	      1.02731878	      0.00505858	     12.72343500	    -11.16472166	     30.62021440	     -9.55811038	     15.37878589	     -8.52895860	     -7.53967017	    -60.36940075	    125.21706016	    -59.91864390	   -154.66828687	      6.77431044	      9.09017301	     19.31793958	     -7.34214027	    -28.20163070	    -10.74697964	    -27.61562671	      7.53171318	     63.83862518	     -9.47808533	      4.56767537	     40.96117953	     10.19414229	     25.20169126	     -5.20946794
      5.73000000	     -5.13987722	      2.85703424	     10.50265700	     -0.09693449	      1.02749189	      0.00472836	     13.02684488	    -11.68640447	     31.50762663	    -10.20433596	     16.01225317	     -8.58772630	     -6.59602011	    -59.36919993	    125.09136598	    -57.56617791	   -154.30025152	      6.25743034	      9.07087448	     19.71082492	     -7.96185000	    -28.83665832	     -9.90576136	    -27.04903158	      7.85932474	     63.94037877	     -8.52562731	      4.75186432	     38.28694508	     10.72080609	     25.16848673	     -4.96635597
      5.74000000	     -5.23771771	      2.87319901	     10.51518187	     -0.09659415	      1.02717149	      0.00425890	     13.28147433	    -11.73297783	     32.55338509	    -10.54554199	     17.00380070	     -8.94389280	     -5.79337230	    -58.60819683	    125.46492283	    -54.93214269	   -153.26245938	      5.90375357	      8.74052586	     20.31733115	     -8.22265035	    -29.85068249	     -9.49360757	    -26.73910103	      8.41583632	     63.29845355	     -6.95809129	      6.08660363	     35.31855865	     11.75648575	     24.93636066	     -5.34518409
      5.75000000	     -5.37191179	      2.96308397	     10.48491921	     -0.09638802	      1.02696386	      0.00397338	     13.67095439	    -11.75711508	     33.73707345	    -10.81667843	     17.86440545	     -9.38478609	     -5.19002054	    -57.70226342	    125.33390851	    -52.33077271	   -151.99933170	      5.72134205	      8.06436535	     21.03323457	     -8.65330113	    -31.03271173	     -8.99089285	    -26.56205280	      9.03003958	     63.00403259	     -5.58661581	      7.30893380	     32.52706276	     13.31112600	     24.53457206	     -5.97844536
      5.76000000	     -5.51604137	      3.15376573	     10.51052887	     -0.09635092	      1.02653251	      0.00382757	     14.16235212	    -11.63199210	     35.11752509	    -10.96259511	     18.76672484	     -9.99809519	     -4.98893331	    -56.87336453	    124.73276801	    -49.78901072	   -150.36581615	      5.77873634	      7.13572772	     21.88225054	     -9.04975949	    -32.43124190	     -8.57182775	    -26.51079422	      9.76840730	     62.83619898	     -4.19861526	      8.26373735	     29.87451682	     15.64115887	     24.10247781	     -6.99045640
      5.77000000	     -5.73781962	      3.21037100	     10.17507602	     -0.09532429	      1.02718987	      0.00353050	     14.32972827	    -12.11255767	     35.92519747	    -11.61793597	     19.61161405	     -9.99614746	     -4.32847337	    -56.18088339	    124.44991796	    -47.52643819	   -149.95532624	      5.34167560	      6.94109335	     22.15492184	     -9.61978416	    -32.84787154	     -7.78011247	    -25.91000903	      9.95207083	     62.90078452	     -3.42795760	      8.98524538	     27.47139237	     16.22404587	     23.87807121	     -6.71185723
      5.78000000	     -5.75914816	      3.16607801	     10.12151780	     -0.09465641	      1.02713576	      0.00312479	     14.58836316	    -12.03409916	     37.17429948	    -11.89995750	     20.87126207	    -10.46979183	     -4.08780242	    -55.87092001	    124.49362310	    -45.05680871	   -148.47497797	      5.27974654	      5.68061353	     22.66303216	     -9.84620099	    -33.68193466	     -7.44256609	    -25.66701817	     10.41261982	     62.35837397	     -2.09949276	     10.69184474	     24.96726031	     17.72747509	     22.72229255	     -7.08423048
      5.79000000	     -5.78232783	      3.18450537	     10.01238293	     -0.09418370	      1.02716952	      0.00304482	     15.02060648	    -11.78345059	     38.58008447	    -11.96230120	     21.93270971	    -11.14553972	     -3.88951000	    -55.26508525	    124.09329030	    -42.71699209	   -146.81152939	      5.27500211	      4.36773014	     23.24102056	    -10.23380491	    -34.60919519	     -6.99948351	    -25.50073888	     10.88843074	     62.17756396	     -1.06127480	     11.95717692	     22.76310178	     19.49244443	     21.50258260	     -7.62414280
      5.80000000	     -5.92449582	      3.26507808	      9.64852708	     -0.09332266	      1.02762546	      0.00292060	     15.30532975	    -11.93512183	     39.53782108	    -12.28822284	     22.69725241	    -11.40634272	     -3.37408752	    -54.70551546	    123.79955196	    -40.95230798	   -146.10760788	      4.99215459	      3.91704930	     23.56327800	    -10.64370172	    -35.11548441	     -6.41004393	    -25.02666551	     11.12983305	     62.31207952	     -0.36944876	     12.34583883	     20.82775066	     20.27793174	     21.03682414	     -7.51645814
      5.81000000	     -5.79047006	      3.15149373	      9.72073557	     -0.09279867	      1.02751056	      0.00284935	     15.67075302	    -11.46285352	     40.95250572	    -12.18770698	     23.90099430	    -12.19456906	     -3.42575189	    -54.53485096	    123.77806003	    -38.91506873	   -143.99810674	      4.98105440	      2.34211401	     24.03701353	    -10.88262238	    -35.87371706	     -6.16159536	    -24.98502484	     11.52736970	     61.86961174	      0.59145953	     13.86775215	     18.95678727	     21.88759047	     19.28544943	     -7.88671259
